<?xml version="1.0" encoding="UTF-8"?>
<svg id="Layer_1" xmlns="http://www.w3.org/2000/svg" viewBox="0 0 339 339">
  <defs>
    <style>
      .cls-1 {
        fill: hsl(101, 100%, 94%);
        stroke-width: 0px;
      }
    </style>
  </defs>
  <path class="cls-1" d="m176.5,180.41v56.71c0,3.83-2.95,7.18-6.78,7.29s-7.22-3.06-7.22-7V101.7c0-3.83,2.95-7.18,6.78-7.29s7.22,3.06,7.22,7v57c0,2.21,1.79,4,4,4h135c2.21,0,4-1.79,4-4V41.5c0-12.15-9.85-22-22-22H41.5c-12.15,0-22,9.85-22,22v256c0,12.15,9.85,22,22,22h256c12.15,0,22-9.85,22-22v-117.09c0-2.21-1.79-4-4-4h-135c-2.21,0-4,1.79-4,4Z"/>
</svg>
