<?xml version="1.0" encoding="UTF-8"?><svg id="Layer_1" xmlns="http://www.w3.org/2000/svg" viewBox="0 0 1745 339"><defs><style>.cls-1{fill:#e9ffdf;stroke-width:0px;}</style></defs><path class="cls-1" d="m609,21h-256c-12.15,0-22,9.85-22,22v256c0,12.15,9.85,22,22,22h256c12.15,0,22-9.85,22-22V43c0-12.15-9.85-22-22-22Zm-121,218c0,3.87-3.13,7-7,7s-7-3.13-7-7V103c0-3.87,3.13-7,7-7s7,3.13,7,7v136Z"/><path class="cls-1" d="m1386.31,21h-256c-12.15,0-22,9.85-22,22v256c0,12.15,9.85,22,22,22h256c12.15,0,22-9.85,22-22V43c0-12.15-9.85-22-22-22Zm-121,218c0,3.87-3.13,7-7,7s-7-3.13-7-7V103c0-3.87,3.13-7,7-7s7,3.13,7,7v136Z"/><path class="cls-1" d="m1661.31,21h-218c-12.15,0-22,9.85-22,22v256c0,12.15,9.85,22,22,22h218c33.14,0,60-26.86,60-60V81c0-33.14-26.86-60-60-60Zm-83,218c0,3.87-3.13,7-7,7s-7-3.13-7-7V103c0-3.87,3.13-7,7-7s7,3.13,7,7v136Z"/><path class="cls-1" d="m1072.66,21h-406c-12.15,0-22,9.85-22,22v256c0,12.15,9.85,22,22,22h114.66c2.21,0,4-1.79,4-4V103.29c0-3.83,2.95-7.18,6.78-7.29s7.22,3.06,7.22,7v214c0,2.21,1.79,4,4,4h133c2.21,0,4-1.79,4-4V103.29c0-3.83,2.95-7.18,6.78-7.29s7.22,3.06,7.22,7v214c0,2.21,1.79,4,4,4h114.34c12.15,0,22-9.85,22-22V43c0-12.15-9.85-22-22-22Z"/><path class="cls-1" d="m174.16,181.91v56.71c0,3.83-2.95,7.18-6.78,7.29s-7.22-3.06-7.22-7V103.2c0-3.83,2.95-7.18,6.78-7.29s7.22,3.06,7.22,7v57c0,2.21,1.79,4,4,4h135c2.21,0,4-1.79,4-4V43c0-12.15-9.85-22-22-22H39.16c-12.15,0-22,9.85-22,22v256c0,12.15,9.85,22,22,22h256c12.15,0,22-9.85,22-22v-117.09c0-2.21-1.79-4-4-4h-135c-2.21,0-4,1.79-4,4Z"/></svg>