<svg xmlns="http://www.w3.org/2000/svg" version="1.1" xmlns:xlink="http://www.w3.org/1999/xlink" xmlns:svgjs="http://svgjs.dev/svgjs" width="500" height="500"><svg xmlns="http://www.w3.org/2000/svg" xmlns:xlink="http://www.w3.org/1999/xlink" width="500" zoomAndPan="magnify" viewBox="0 0 375 374.999991" height="500" preserveAspectRatio="xMidYMid meet" version="1.0"><rect x="-37.5" width="450" fill="#ffffff" y="-37.499999" height="449.999989" fill-opacity="1"></rect><rect x="-37.5" width="450" fill="#000000" y="-37.499999" height="449.999989" fill-opacity="1"></rect><path fill="#ffffff" d="M 193.695312 197.15625 L 193.695312 247.339844 C 193.695312 250.730469 191.085938 253.695312 187.695312 253.792969 C 184.304688 253.890625 181.304688 251.085938 181.304688 247.597656 L 181.304688 127.5 C 181.304688 124.109375 183.914062 121.144531 187.304688 121.046875 C 190.695312 120.953125 193.695312 123.757812 193.695312 127.242188 L 193.695312 177.6875 C 193.695312 179.640625 195.277344 181.226562 197.234375 181.226562 L 316.703125 181.226562 C 318.660156 181.226562 320.242188 179.640625 320.242188 177.6875 L 320.242188 74.226562 C 320.242188 63.472656 311.527344 54.757812 300.773438 54.757812 L 74.226562 54.757812 C 63.472656 54.757812 54.757812 63.472656 54.757812 74.226562 L 54.757812 300.773438 C 54.757812 311.527344 63.472656 320.242188 74.226562 320.242188 L 300.773438 320.242188 C 311.527344 320.242188 320.242188 311.527344 320.242188 300.773438 L 320.242188 197.15625 C 320.242188 195.199219 318.660156 193.613281 316.703125 193.613281 L 197.234375 193.613281 C 195.277344 193.613281 193.695312 195.199219 193.695312 197.15625 Z M 193.695312 197.15625 " fill-opacity="1" fill-rule="nonzero"></path></svg><style>@media (prefers-color-scheme: light) { :root { filter: none; } }
@media (prefers-color-scheme: dark) { :root { filter: none; } }
</style></svg>